<?xml version="1.0" standalone="no"?>
<!DOCTYPE svg PUBLIC "-//W3C//DTD SVG 20010904//EN"
 "http://www.w3.org/TR/2001/REC-SVG-20010904/DTD/svg10.dtd">
<svg version="1.0" xmlns="http://www.w3.org/2000/svg"
 width="280.000000pt" height="280.000000pt" viewBox="0 0 280.000000 280.000000"
 preserveAspectRatio="xMidYMid meet">
<metadata>
Created by potrace 1.14, written by Peter Selinger 2001-2017
</metadata>
<g transform="translate(0.000000,280.000000) scale(0.100000,-0.100000)"
fill="#000000" stroke="none">
<path d="M270 1661 c-6 -12 -26 -22 -50 -26 -35 -6 -42 -11 -47 -35 -7 -36
-48 -50 -68 -24 -17 24 -82 7 -77 -20 2 -13 -1 -16 -10 -10 -7 4 -10 3 -5 -1
9 -10 47 -15 47 -6 0 4 8 11 19 18 14 9 21 8 34 -7 15 -17 14 -18 -16 -17 -29
2 -32 0 -29 -25 3 -30 -12 -38 -22 -13 -3 8 -12 12 -20 9 -21 -8 -23 -204 -1
-204 8 0 15 -4 15 -9 0 -5 12 -8 27 -8 14 0 32 -8 38 -17 7 -8 15 -13 18 -10
9 9 48 -7 41 -17 -3 -5 -2 -9 3 -8 22 4 25 -2 7 -16 -10 -8 -28 -15 -39 -15
-12 0 -27 -6 -34 -12 -11 -11 -12 -9 -7 9 5 16 1 28 -16 43 -13 11 -30 28 -39
36 -15 13 -17 13 -23 -1 -3 -9 -6 -38 -5 -63 0 -33 3 -41 8 -28 7 19 8 19 13
-2 4 -13 2 -20 -6 -19 -6 1 -12 -10 -14 -25 -2 -16 1 -28 7 -28 6 0 11 7 11
15 0 9 6 12 17 8 11 -4 14 -3 9 5 -5 8 -1 10 10 5 16 -6 15 -8 -5 -17 -16 -7
-21 -16 -19 -31 3 -12 -2 -27 -11 -35 -13 -12 -14 -12 -9 1 3 9 2 22 -3 30 -5
9 -9 -82 -8 -233 0 -221 6 -277 22 -235 3 6 6 0 6 -14 1 -15 -6 -32 -14 -39
-20 -17 -22 -319 -3 -338 10 -10 10 -15 1 -20 -7 -5 -12 -35 -12 -80 0 -40 4
-70 9 -67 5 3 7 14 5 25 -4 21 19 28 30 9 4 -5 12 -8 18 -6 5 1 22 -7 35 -20
14 -13 36 -26 49 -29 13 -4 23 -12 23 -19 0 -7 7 -16 16 -19 9 -4 281 -6 605
-6 643 1 618 -1 606 60 -4 16 -2 32 3 35 6 4 7 11 4 17 -4 6 1 17 11 24 11 8
19 28 20 52 1 21 5 44 9 50 4 7 4 12 0 12 -4 0 1 9 11 20 10 11 22 20 27 20
15 0 8 -25 -11 -37 -15 -9 -19 -22 -18 -57 1 -24 -1 -42 -5 -39 -5 2 -8 -12
-8 -31 0 -19 5 -38 10 -41 6 -3 10 -1 10 4 0 6 5 11 11 11 5 0 7 -5 3 -12 -4
-7 -3 -8 5 -4 9 6 9 11 0 22 -6 8 -7 14 -2 14 5 0 19 -19 30 -41 20 -40 21
-41 33 -19 6 12 13 38 16 58 6 62 10 76 22 80 7 2 12 -1 12 -8 0 -6 4 -9 9 -5
5 3 13 0 17 -6 4 -7 3 -9 -3 -6 -16 10 -35 -19 -37 -52 0 -16 -4 -27 -8 -25
-5 3 -8 -2 -8 -11 0 -11 7 -15 28 -12 15 3 26 9 25 15 -1 5 7 8 17 5 16 -4 20
0 20 17 0 20 -4 22 -34 17 -25 -4 -33 -2 -30 7 3 7 22 12 44 11 37 0 38 -1 33
-28 -5 -26 -3 -28 18 -25 15 2 24 9 23 20 -1 10 4 14 12 11 8 -3 26 -2 40 1
21 6 24 9 14 21 -7 9 -8 15 -2 15 5 0 12 -7 16 -15 3 -8 12 -15 20 -15 8 0 16
-4 18 -8 2 -5 15 -12 31 -16 25 -6 27 -4 26 21 0 16 -3 22 -6 16 -7 -19 -19
-16 -20 5 -1 9 -4 32 -7 50 -3 17 -3 32 -1 32 9 0 34 -58 28 -64 -4 -3 -1 -6
5 -6 7 0 12 5 12 10 0 6 5 10 10 10 6 0 8 -10 4 -24 -9 -39 6 -53 27 -25 10
13 19 19 19 12 0 -7 7 -10 15 -6 26 9 85 65 79 75 -3 4 0 8 6 8 6 0 8 5 4 11
-3 6 0 15 7 20 11 7 9 9 -6 9 -11 -1 -28 -7 -38 -14 -16 -12 -23 -12 -48 2
-27 15 -31 15 -42 2 -17 -21 -38 -24 -30 -3 5 12 2 15 -9 11 -8 -4 -21 -2 -29
3 -10 7 0 9 31 9 95 0 145 5 143 16 -1 5 7 15 18 22 10 7 18 9 18 5 -1 -5 2
-28 6 -52 7 -40 9 -42 21 -26 7 10 11 22 8 27 -4 5 3 4 15 -4 12 -7 21 -16 21
-20 0 -5 4 -8 9 -8 6 0 6 12 1 29 -4 15 -5 34 0 40 4 7 5 24 2 38 -3 18 -1 24
7 19 15 -10 14 6 -4 40 -8 16 -15 34 -15 41 0 19 26 5 40 -23 7 -13 18 -24 23
-24 6 0 19 -8 30 -17 11 -10 18 -13 14 -7 -3 6 0 11 8 11 8 0 13 -3 12 -6 -1
-4 8 -19 19 -34 24 -30 49 -35 61 -13 7 12 13 12 41 1 33 -15 43 -35 16 -35
-8 0 -12 5 -9 10 11 18 -23 22 -54 6 -28 -15 -31 -15 -45 6 -13 18 -18 19 -31
8 -17 -14 -21 -35 -4 -25 13 9 47 -26 41 -43 -2 -6 3 -15 12 -18 9 -3 16 -12
16 -20 0 -7 11 -16 24 -20 13 -3 36 -19 50 -35 22 -24 30 -28 46 -19 16 8 22
6 32 -10 7 -11 22 -20 33 -20 17 0 18 -1 4 -16 -14 -13 -24 -14 -70 -4 -30 6
-63 12 -73 14 -10 1 -27 13 -37 25 -16 19 -19 20 -19 6 0 -12 -6 -16 -20 -12
-11 3 -20 1 -20 -4 0 -11 -51 -4 -59 8 -8 12 -45 11 -53 -2 -5 -6 -8 -3 -8 8
0 9 -7 17 -15 17 -7 0 -18 8 -23 17 -9 16 -12 15 -38 -2 l-29 -18 19 27 c18
28 16 44 -3 31 -6 -3 -11 -13 -11 -20 0 -8 -10 -19 -21 -26 -17 -9 -19 -13 -8
-19 10 -7 6 -12 -14 -21 -14 -6 -27 -21 -29 -32 -2 -11 -9 -22 -17 -25 -8 -3
-11 0 -7 7 4 6 2 11 -3 11 -6 0 -11 -6 -11 -14 0 -8 -5 -18 -12 -22 -7 -5 -8
-2 -3 7 6 11 5 11 -5 2 -7 -6 -19 -9 -26 -6 -8 3 -14 -1 -14 -11 0 -9 -5 -15
-11 -14 -6 2 -14 -3 -16 -9 -4 -10 28 -13 137 -13 80 0 139 4 136 9 -3 5 1 12
10 15 25 10 34 7 28 -9 -4 -9 0 -15 9 -15 10 0 14 7 10 23 -3 16 -2 18 5 8 7
-9 12 -10 16 -2 6 10 -6 15 -26 12 -18 -3 -6 21 12 26 11 3 18 9 15 12 -2 4 3
8 11 8 8 0 13 -6 10 -13 -3 -7 2 -15 10 -18 14 -5 20 -27 7 -25 -20 3 -23 -2
-9 -16 12 -13 57 -15 275 -15 l261 0 0 311 0 312 -26 23 c-14 13 -22 24 -18
24 4 0 16 -7 25 -16 17 -16 18 -15 16 15 -1 17 -5 31 -9 31 -3 0 -14 3 -24 7
-11 4 -15 3 -10 -5 7 -12 -13 -52 -27 -52 -4 0 -6 22 -4 49 4 43 2 49 -14 46
-23 -5 -42 20 -59 74 -8 24 -19 45 -26 48 -7 2 -15 15 -18 29 -4 13 -10 24
-15 24 -5 0 -22 26 -38 58 -15 31 -40 72 -55 90 -16 18 -28 39 -28 47 0 13
-14 20 -22 13 -7 -5 -48 38 -48 49 0 7 -7 10 -17 6 -12 -5 -15 -2 -11 8 7 18
-24 85 -38 82 -5 -1 -11 8 -11 20 -2 20 -12 49 -49 135 -9 20 -19 30 -26 26
-6 -4 -17 0 -23 10 -10 13 -18 14 -40 6 -23 -9 -26 -8 -17 3 7 8 9 17 5 20 -9
9 -23 9 -22 0 3 -20 -2 -27 -10 -14 -7 11 -14 10 -40 -8 -17 -12 -34 -33 -37
-46 -3 -13 -27 -43 -52 -67 -26 -23 -49 -51 -52 -62 -10 -35 -35 -42 -66 -17
-16 13 -45 29 -64 37 -31 13 -36 13 -46 -1 -11 -14 -17 -7 -44 47 -17 35 -47
80 -65 101 -27 31 -38 37 -59 31 -13 -3 -32 -14 -42 -25 -27 -30 -52 -24 -68
16 -17 39 -37 44 -65 16 -12 -12 -27 -17 -40 -14 -22 5 -101 -41 -101 -58 0
-5 -5 -9 -11 -9 -12 0 -59 -46 -59 -58 -1 -11 -80 -64 -80 -53 0 6 -10 15 -21
22 -12 6 -19 7 -16 2 4 -5 0 -10 -8 -10 -8 0 -13 3 -12 6 4 13 -45 52 -71 57
-30 6 -72 58 -72 88 0 10 -8 26 -18 35 -9 9 -23 29 -30 44 -9 22 -17 27 -30
21 -9 -4 -32 -7 -50 -7 -25 0 -30 -2 -18 -9 9 -5 22 -6 29 -3 6 4 3 -1 -7 -9
-11 -9 -30 -16 -43 -16 -15 0 -23 -6 -23 -17 0 -15 -2 -14 -16 3 -8 10 -12 13
-8 5 5 -9 3 -12 -4 -7 -7 4 -12 23 -12 42 0 22 -4 33 -11 29 -6 -4 -8 -13 -5
-21 6 -16 -20 -19 -29 -3 -5 6 -12 4 -21 -8 -11 -15 -14 -15 -15 -3 -1 8 -1
20 0 25 1 6 -5 2 -13 -8 -10 -12 -16 -15 -21 -7 -4 6 -13 9 -20 7 -8 -4 -11 4
-9 26 3 30 3 31 -12 12 -9 -12 -11 -21 -4 -23 5 -2 7 -8 4 -13 -3 -6 8 -15 25
-22 17 -6 31 -16 31 -22 0 -6 10 -15 22 -20 12 -6 23 -17 25 -25 4 -13 2 -12
-9 1 -7 9 -26 19 -43 22 -27 7 -28 6 -12 -7 14 -11 15 -15 4 -19 -22 -8 -41 9
-33 29 6 18 5 17 -9 0 -17 -23 -19 -36 -5 -36 6 0 10 -5 10 -11 0 -5 -4 -8 -9
-5 -5 4 -12 0 -15 -6 -3 -7 -4 6 -2 28 3 38 2 42 -20 42 -22 0 -23 -2 -7 -13
10 -8 15 -17 10 -21 -8 -9 -36 24 -37 44 0 6 6 12 13 12 8 0 8 3 -2 9 -8 5
-20 7 -28 4 -8 -3 -13 2 -13 16 0 23 -19 28 -39 9 -11 -10 -13 -10 -7 0 4 6 2
12 -4 12 -6 0 -9 4 -6 8 3 5 -8 8 -24 7 -17 -1 -30 2 -30 7 0 5 -4 7 -9 3 -13
-7 -29 24 -26 48 4 23 -22 22 -35 -2z m-32 -62 c-20 -13 -32 -10 -19 4 6 8 7
18 3 23 -4 4 1 2 11 -5 14 -11 15 -16 5 -22z m37 1 c-3 -5 1 -10 9 -10 9 0 16
-5 16 -11 0 -8 6 -7 17 2 9 8 14 9 10 3 -7 -12 67 -39 82 -29 5 3 17 -9 26
-27 9 -18 11 -28 4 -21 -7 7 -21 8 -40 3 -17 -5 -29 -5 -29 1 0 5 11 9 25 9
14 0 25 5 25 11 0 7 -11 9 -26 6 -22 -4 -70 15 -127 50 -7 4 0 23 9 23 3 0 2
-4 -1 -10z m-11 -91 c-5 9 -3 12 5 7 6 -4 18 -2 26 4 9 7 15 8 15 2 0 -5 -8
-13 -17 -16 -20 -8 -8 -21 27 -31 24 -7 25 -7 5 10 -20 16 -20 16 3 5 18 -9
22 -8 22 7 0 16 1 16 13 -1 7 -9 19 -18 27 -19 8 -2 20 -6 26 -10 7 -4 14 0
18 8 6 16 56 17 56 2 0 -5 -7 -6 -16 -3 -12 5 -15 2 -10 -10 5 -14 4 -15 -8
-5 -11 9 -15 8 -20 -4 -3 -9 -11 -13 -17 -9 -7 4 -9 3 -6 -3 8 -13 -26 -40
-47 -37 -9 1 -16 -2 -14 -8 5 -13 38 -20 38 -9 0 4 16 7 35 8 24 1 35 -3 35
-13 0 -10 -8 -12 -32 -7 -21 4 -29 3 -24 -5 5 -9 21 -10 69 -3 5 0 5 6 1 12
-3 6 0 16 7 21 11 8 10 9 -3 5 -9 -3 -19 0 -21 7 -4 10 1 12 14 9 10 -3 25 0
33 6 8 7 18 11 22 10 24 -4 55 2 50 10 -7 11 17 21 47 20 l22 0 -22 -9 c-31
-13 -29 -20 7 -20 25 0 31 5 39 33 8 29 9 29 10 7 1 -14 -6 -35 -14 -48 -14
-20 -14 -21 0 -16 8 3 15 10 15 15 0 5 4 9 10 9 5 0 8 -10 6 -22 -2 -17 10
-36 45 -70 26 -26 44 -50 38 -53 -5 -4 -9 0 -9 7 0 9 -3 9 -10 -2 -8 -12 -10
-10 -11 10 0 14 -3 20 -6 13 -8 -22 -41 7 -35 31 5 18 3 19 -10 8 -9 -7 -22
-10 -31 -6 -8 3 -18 0 -22 -6 -5 -8 -10 -8 -20 0 -10 8 -15 8 -21 -1 -4 -7 -3
-9 3 -6 6 4 14 0 17 -9 3 -8 10 -13 15 -10 12 8 61 -14 61 -27 0 -5 -6 -4 -14
2 -18 15 -126 24 -126 11 0 -6 -10 -10 -22 -9 -13 0 -17 3 -10 6 14 6 16 23 2
23 -18 0 -50 -38 -37 -44 7 -2 4 -5 -6 -5 -11 -1 -21 8 -24 20 -4 16 -8 18
-14 7 -7 -11 -11 -10 -19 2 -5 8 -10 10 -10 4 0 -16 -43 -26 -51 -12 -4 6 -5
18 -2 27 4 13 3 13 -5 2 -6 -8 -8 -20 -5 -28 3 -7 0 -13 -6 -13 -6 0 -11 12
-12 28 l-1 27 -10 -27 c-9 -27 -28 -39 -28 -18 0 6 5 10 10 10 15 0 12 30 -2
31 -7 1 -27 2 -45 3 -17 1 -50 15 -72 30 -42 29 -53 43 -26 32 26 -10 46 4 40
28 -4 14 -3 17 3 8 12 -17 44 -22 60 -9 17 13 15 27 -4 27 -11 0 -14 -5 -10
-17 4 -10 4 -14 0 -10 -4 4 -9 28 -10 52 -1 41 0 44 13 28 8 -10 11 -12 7 -4z
m451 -8 c3 -5 1 -12 -4 -15 -5 -3 -11 1 -15 9 -6 16 9 21 19 6z m759 -7 c18
-7 22 -49 6 -59 -5 -3 -10 -1 -10 6 0 6 -7 17 -17 24 -9 7 -13 17 -9 23 8 14
9 14 30 6z m-74 -18 c0 -3 -4 -8 -10 -11 -5 -3 -10 -1 -10 4 0 6 5 11 10 11 6
0 10 -2 10 -4z m-662 -26 c-7 -10 -14 -17 -17 -15 -4 4 18 35 25 35 2 0 -1 -9
-8 -20z m722 -35 c4 3 3 -6 -3 -20 -7 -14 -20 -25 -30 -25 -14 0 -17 -5 -12
-22 7 -22 7 -22 -8 -3 -13 17 -13 21 2 31 9 7 13 16 8 20 -4 4 -7 2 -7 -4 0
-7 -4 -12 -10 -12 -18 0 -10 32 9 37 11 3 22 15 26 26 7 21 8 20 12 -6 2 -15
8 -25 13 -22z m683 20 c0 -6 -7 -11 -16 -13 -12 -3 -15 1 -11 13 7 17 25 17
27 0z m-803 -9 c0 -11 -19 -15 -25 -6 -3 5 1 10 9 10 9 0 16 -2 16 -4z m-1270
-30 c0 -2 -8 -10 -17 -17 -16 -13 -17 -12 -4 4 13 16 21 21 21 13z m2113 -29
c-3 -5 -10 -4 -15 1 -6 6 -7 16 -3 22 6 9 9 9 16 -1 4 -7 5 -17 2 -22z m-843
4 c0 -4 -7 -8 -15 -8 -16 0 -20 9 -9 20 8 8 24 -1 24 -12z m-370 -56 c0 -8 -2
-15 -4 -15 -2 0 -6 7 -10 15 -3 8 -1 15 4 15 6 0 10 -7 10 -15z m-780 -58
c-10 -9 -11 -9 -6 0 3 6 -6 15 -24 22 -17 5 -30 12 -30 15 0 3 6 3 14 0 8 -3
17 0 21 6 5 8 12 4 22 -10 12 -17 13 -24 3 -33z m1336 33 c0 -11 -4 -20 -8
-20 -4 0 -8 9 -8 20 0 11 4 20 8 20 4 0 8 -9 8 -20z m-1221 -21 c-6 -9 -35 -1
-35 10 0 4 3 11 7 14 8 9 34 -13 28 -24z m975 15 c0 -1 -11 -9 -24 -17 -22
-15 -24 -15 -19 1 2 10 13 18 24 18 10 0 19 -1 19 -2z m-270 -40 c0 -12 -21
-11 -34 2 -25 24 -19 36 9 18 14 -9 25 -18 25 -20z m200 16 c0 -18 -16 -25
-42 -21 -12 2 -51 -40 -44 -46 3 -4 -4 -13 -15 -21 -18 -12 -23 -13 -30 -1 -8
11 -12 10 -24 -5 -8 -11 -15 -16 -15 -10 0 5 -7 0 -15 -10 -8 -11 -15 -15 -15
-10 0 5 20 29 44 53 32 32 49 42 62 37 10 -4 15 -4 11 0 -10 11 13 34 34 34
11 0 19 5 19 10 0 6 7 10 15 10 8 0 15 -9 15 -20z m340 5 c0 -8 -4 -15 -10
-15 -5 0 -7 7 -4 15 4 8 8 15 10 15 2 0 4 -7 4 -15z m-1026 -12 c4 -10 4 -14
0 -10 -11 10 -34 -13 -34 -34 0 -11 -4 -19 -10 -19 -5 0 -10 3 -10 7 0 6 43
73 46 73 1 0 5 -8 8 -17z m-269 -13 c3 -5 -1 -10 -9 -10 -9 0 -16 5 -16 10 0
6 4 10 9 10 6 0 13 -4 16 -10z m159 -8 c2 -4 -5 -9 -17 -9 -17 -2 -19 0 -7 7
18 12 18 12 24 2z m636 -18 c0 -2 -9 -8 -20 -14 -15 -8 -18 -8 -14 3 4 11 34
21 34 11z m-973 -30 c-3 -3 -12 -4 -19 -1 -8 3 -5 6 6 6 11 1 17 -2 13 -5z
m883 -29 c-24 -25 -50 -33 -50 -15 0 9 14 14 33 11 4 -1 10 6 13 14 4 8 11 15
17 15 6 0 0 -11 -13 -25z m-825 5 c-3 -5 -14 -10 -23 -10 -15 0 -15 2 -2 10
20 13 33 13 25 0z m480 -39 c-3 -6 -11 -11 -16 -11 -5 0 -4 6 3 14 14 16 24
13 13 -3z m270 -1 c-3 -5 -11 -10 -16 -10 -6 0 -7 5 -4 10 3 6 11 10 16 10 6
0 7 -4 4 -10z m-29 -45 c2 -18 0 -25 -5 -17 -4 7 -16 10 -27 7 -18 -6 -18 -6
0 9 10 8 15 20 11 27 -5 7 -3 10 5 7 7 -2 14 -17 16 -33z m-736 11 c0 -3 -4
-8 -10 -11 -5 -3 -10 -1 -10 4 0 6 5 11 10 11 6 0 10 -2 10 -4z m444 -22 c3
-8 2 -12 -4 -9 -6 3 -10 10 -10 16 0 14 7 11 14 -7z m886 -4 c0 -5 -2 -10 -4
-10 -3 0 -8 5 -11 10 -3 6 -1 10 4 10 6 0 11 -4 11 -10z m780 6 c0 -2 -8 -10
-17 -17 -16 -13 -17 -12 -4 4 13 16 21 21 21 13z m94 -15 c-13 -12 -23 -15
-31 -9 -7 5 -18 6 -24 2 -8 -5 -9 -3 -5 5 5 7 13 10 20 8 6 -2 20 -1 31 4 30
11 30 11 9 -10z m123 -93 c-3 -7 -5 -2 -5 12 0 14 2 19 5 13 2 -7 2 -19 0 -25z
m-623 -13 c-4 -8 -11 -12 -16 -9 -6 4 -5 10 3 15 19 12 19 11 13 -6z m637 -28
c-10 -9 -11 -8 -5 6 3 10 9 15 12 12 3 -3 0 -11 -7 -18z m69 -8 c0 -5 -6 -9
-14 -9 -7 0 -20 -8 -27 -17 -12 -15 -12 -16 4 -10 11 4 16 3 12 -3 -10 -16 19
-40 36 -29 11 7 11 9 -3 9 -10 0 -18 5 -18 11 0 6 9 8 20 4 13 -4 20 -2 18 5
-2 7 3 15 10 17 16 6 -2 -44 -25 -69 -8 -10 -13 -24 -9 -33 3 -9 2 -13 -4 -10
-6 3 -10 1 -10 -4 0 -6 7 -11 15 -11 8 0 15 6 15 13 0 8 3 8 9 -2 5 -8 6 -24
2 -35 -13 -35 -2 -50 20 -30 11 9 22 14 27 10 4 -4 -3 -16 -16 -27 -13 -10
-21 -23 -18 -28 4 -5 2 -12 -3 -15 -5 -4 -7 -21 -4 -40 3 -19 1 -36 -6 -40 -7
-5 -9 -1 -5 9 4 11 2 14 -9 9 -12 -4 -14 -1 -10 15 3 13 1 21 -7 21 -8 0 -9 4
-3 13 8 11 9 19 5 53 -1 7 -10 11 -19 10 -13 -1 -18 7 -18 28 0 16 -6 31 -13
34 -13 4 -13 0 3 -195 2 -36 1 -41 -17 -38 -12 3 -22 -3 -28 -18 -5 -13 -9
-16 -9 -7 -1 8 -6 32 -12 53 -9 34 -12 36 -32 26 -12 -7 -19 -8 -15 -4 4 4 -2
17 -13 28 -14 16 -16 23 -7 29 7 4 9 8 4 8 -5 0 -1 9 9 20 10 11 15 23 11 27
-4 4 -11 1 -16 -7 -6 -8 -10 -11 -10 -7 0 4 -9 3 -21 -4 -16 -8 -24 -8 -33 1
-8 9 -5 16 12 31 21 16 23 24 17 60 -5 28 -4 39 3 35 8 -4 8 4 0 26 -20 64
-20 75 -5 75 8 0 13 -6 10 -13 -2 -7 4 -17 15 -23 17 -9 19 -8 15 8 -4 17 -1
19 28 14 18 -3 39 -12 46 -21 11 -16 12 -16 13 1 0 10 5 15 10 12 6 -3 10 2
10 11 0 28 30 56 47 43 7 -6 13 -15 13 -20z m-700 -29 c-9 -17 -15 -19 -23
-10 -9 9 -7 15 7 26 25 18 31 12 16 -16z m364 9 c13 20 23 12 19 -14 -3 -13
-13 -27 -24 -30 -11 -4 -16 -12 -12 -21 3 -7 0 -14 -7 -14 -10 0 -10 -3 0 -15
11 -13 10 -14 -5 -9 -17 7 -17 12 0 84 2 8 4 20 4 25 1 6 5 4 10 -4 6 -9 11
-10 15 -2z m-771 -49 c-3 -11 -7 -20 -9 -20 -2 0 -4 9 -4 20 0 11 4 20 9 20 5
0 7 -9 4 -20z m1197 5 c0 -9 -6 -12 -17 -8 -10 4 -14 2 -9 -5 3 -6 2 -13 -3
-16 -5 -3 -12 2 -15 11 -7 17 9 33 32 33 6 0 12 -7 12 -15z m-813 -27 c-3 -8
-6 -5 -6 6 -1 11 2 17 5 13 3 -3 4 -12 1 -19z m828 -48 c0 -17 -25 -20 -41 -5
-17 14 -6 27 19 23 12 -2 22 -10 22 -18z m-1765 -25 c14 -8 20 -14 13 -15 -12
0 -12 -24 0 -36 4 -4 7 -14 7 -23 0 -9 -9 -2 -21 17 -12 17 -25 32 -30 32 -5
0 -9 9 -9 20 0 23 6 24 40 5z m1384 -26 c-21 -24 -29 -18 -14 10 6 12 16 19
21 15 6 -4 4 -13 -7 -25z m-827 -6 c-17 -17 -60 -26 -51 -11 3 5 11 7 17 5 7
-2 18 2 25 10 7 7 16 13 20 13 3 0 -1 -8 -11 -17z m-193 -12 c3 -5 -1 -11 -9
-14 -9 -4 -12 -1 -8 9 6 16 10 17 17 5z m-1154 -24 c0 -7 -9 -13 -19 -13 -15
0 -17 3 -9 13 6 7 14 13 19 13 5 0 9 -6 9 -13z m2443 -17 c3 -11 1 -20 -4 -20
-5 0 -9 9 -9 20 0 11 2 20 4 20 2 0 6 -9 9 -20z m-323 -3 c0 -22 -26 -34 -52
-25 -42 15 -35 34 12 33 22 0 40 -4 40 -8z m-1255 -52 c-24 -17 -35 -19 -35
-5 0 6 -8 10 -17 11 -14 0 -14 2 3 9 12 5 25 14 29 20 5 9 12 8 23 -4 15 -14
14 -17 -3 -31z m1340 35 c3 -5 -1 -10 -9 -10 -9 0 -16 5 -16 10 0 6 4 10 9 10
6 0 13 -4 16 -10z m-932 -15 c-3 -9 -8 -14 -10 -11 -3 3 -2 9 2 15 9 16 15 13
8 -4z m142 6 c3 -5 1 -12 -5 -16 -5 -3 -10 1 -10 9 0 18 6 21 15 7z m745 0 c0
-23 -14 -41 -31 -41 -20 0 -21 15 -4 37 12 14 35 17 35 4z m-1780 -11 c0 -5
-5 -10 -11 -10 -5 0 -7 5 -4 10 3 6 8 10 11 10 2 0 4 -4 4 -10z m1866 -36 c12
5 15 2 10 -10 -3 -9 -9 -26 -12 -38 -3 -13 -12 -23 -20 -23 -10 0 -12 7 -8 21
6 19 5 20 -11 6 -17 -14 -18 -13 -10 5 4 11 8 28 9 37 0 13 4 14 13 6 7 -5 20
-7 29 -4z m-74 -19 c-2 -14 -9 -25 -14 -25 -5 0 -7 3 -5 8 2 4 7 15 10 25 9
25 15 21 9 -8z m-818 -41 c-3 -35 -14 -44 -14 -12 0 21 7 38 15 38 1 0 1 -12
-1 -26z m710 4 c-5 -8 -2 -9 9 -5 10 3 17 3 17 -2 0 -5 -11 -11 -24 -13 -18
-4 -26 0 -29 14 -4 13 0 18 15 18 12 0 17 -4 12 -12z m-1164 -6 c0 -13 -12
-22 -22 -16 -10 6 -1 24 13 24 5 0 9 -4 9 -8z m1287 -27 c-15 -16 -22 -11 -13
10 3 9 10 13 16 10 6 -4 5 -11 -3 -20z m-1822 5 c-3 -5 -12 -10 -18 -10 -7 0
-6 4 3 10 19 12 23 12 15 0z m1435 0 c0 -5 -5 -10 -11 -10 -5 0 -7 5 -4 10 3
6 8 10 11 10 2 0 4 -4 4 -10z m168 -12 c-2 -5 -6 -8 -9 -6 -3 2 -12 -2 -20 -8
-8 -6 -29 -7 -49 -3 -31 6 -29 8 10 13 5 0 14 6 20 12 13 13 52 6 48 -8z m344
-10 c-15 -15 -24 -6 -16 16 5 12 10 14 17 7 8 -8 8 -14 -1 -23z m-635 -26 c9
2 18 9 21 17 3 8 0 11 -6 7 -6 -3 -13 -2 -17 4 -3 5 1 10 10 10 22 0 29 -26
13 -47 -17 -23 -37 -27 -44 -8 -3 8 -9 13 -13 11 -4 -3 -7 7 -8 22 -2 24 -1
24 7 7 8 -19 9 -18 11 5 2 24 2 24 6 -3 3 -19 10 -27 20 -25z m-574 18 c-3
-11 -9 -17 -15 -14 -5 3 -4 12 3 20 16 19 18 18 12 -6z m422 10 c12 -19 -6
-59 -26 -57 -19 1 -24 22 -13 51 7 18 30 21 39 6z m-170 -30 c3 -5 1 -10 -4
-10 -6 0 -11 5 -11 10 0 6 2 10 4 10 3 0 8 -4 11 -10z m914 -40 c0 -25 0 -25
-9 -2 -5 12 -12 22 -16 22 -3 0 -4 -7 -1 -15 4 -8 1 -17 -6 -21 -7 -4 -9 -4
-5 0 3 4 3 20 -2 35 -7 27 -7 28 16 17 16 -7 24 -19 23 -36z m-1339 -10 c14 0
17 -58 4 -82 -8 -13 -13 -17 -14 -10 0 7 -5 10 -12 6 -8 -5 -9 0 -6 14 4 12 2
22 -2 22 -9 0 -9 1 6 65 8 36 9 37 12 13 2 -16 7 -28 12 -28z m291 27 c-10 -9
-11 -8 -5 6 3 10 9 15 12 12 3 -3 0 -11 -7 -18z m1074 13 c3 -5 1 -10 -4 -10
-6 0 -11 5 -11 10 0 6 2 10 4 10 3 0 8 -4 11 -10z m-1338 -32 c-3 -8 -6 -5 -6
6 -1 11 2 17 5 13 3 -3 4 -12 1 -19z m133 -32 c-6 -6 -6 -14 1 -22 7 -9 4 -14
-11 -19 -11 -3 -18 -10 -15 -15 9 -14 -6 -40 -23 -40 -13 0 -12 -3 4 -15 16
-12 17 -16 5 -24 -19 -12 -41 -3 -41 18 0 13 -2 13 -9 2 -10 -16 -8 33 2 62 4
9 9 24 12 33 3 8 9 13 14 9 6 -3 8 3 6 14 -2 14 1 18 11 14 8 -3 14 0 14 6 0
8 6 7 20 -1 12 -8 16 -16 10 -22z m282 -8 c5 -10 5 -18 0 -18 -12 0 -32 46
-24 55 4 3 8 0 11 -7 2 -7 8 -21 13 -30z m148 28 c0 -2 -6 -9 -13 -15 -10 -8
-14 -7 -14 4 0 8 6 15 14 15 7 0 13 -2 13 -4z m296 -20 c18 5 24 2 24 -10 0
-9 -7 -16 -15 -16 -8 0 -13 -6 -11 -12 1 -7 1 -10 -1 -5 -3 4 -9 5 -14 2 -5
-4 -6 2 -3 12 5 16 4 16 -10 -1 -9 -11 -16 -25 -16 -32 0 -7 -4 -15 -9 -19 -6
-3 -8 4 -6 15 2 13 -1 20 -11 20 -16 0 -11 -33 8 -57 17 -21 -6 -15 -42 12
-19 14 -40 23 -47 21 -7 -3 -13 1 -13 9 0 8 -4 15 -10 15 -5 0 -10 8 -10 19 0
12 9 20 25 23 14 3 25 2 25 -1 0 -4 20 -8 44 -9 33 -1 46 3 51 16 5 12 9 13
12 5 3 -8 14 -11 29 -7z m-835 -19 c-10 -9 -11 -8 -5 6 3 10 9 15 12 12 3 -3
0 -11 -7 -18z m175 -14 c-11 -11 -19 6 -11 24 8 17 8 17 12 0 3 -10 2 -21 -1
-24z m171 2 c0 -8 -4 -15 -9 -15 -10 0 -11 14 -1 23 9 10 10 9 10 -8z m183 -5
c12 -6 17 -16 13 -26 -5 -13 -7 -13 -15 -2 -6 9 -8 6 -7 -12 4 -50 0 -63 -15
-51 -8 6 -19 10 -26 9 -7 -2 -15 3 -17 10 -3 6 3 12 12 12 9 0 14 4 11 9 -3 5
1 14 9 21 7 6 11 18 8 26 -6 17 1 18 27 4z m97 -16 c2 -6 -8 -16 -22 -22 -28
-13 -30 -10 -14 19 10 20 30 22 36 3z m-1540 0 c-3 -3 -12 -4 -19 -1 -8 3 -5
6 6 6 11 1 17 -2 13 -5z m4 -26 c-17 -6 -29 -5 -38 5 -11 11 -7 12 24 9 35 -4
36 -5 14 -14z m1308 -14 c-9 -11 -15 -12 -23 -4 -8 8 -6 15 9 26 23 17 34 2
14 -22z m-1224 -33 c3 -8 2 -17 -4 -20 -5 -3 -11 -15 -14 -26 -4 -12 -5 -9 -3
8 2 16 -3 34 -10 41 -7 8 -10 16 -7 20 4 3 -1 6 -11 6 -9 0 -14 5 -11 10 7 12
51 -17 60 -39z m755 29 c0 -5 -2 -10 -4 -10 -3 0 -8 5 -11 10 -3 6 -1 10 4 10
6 0 11 -4 11 -10z m621 -13 c-10 -9 -11 -8 -5 6 3 10 9 15 12 12 3 -3 0 -11
-7 -18z m62 -19 c7 -20 -4 -38 -22 -38 -14 1 -14 2 2 11 9 6 15 15 12 20 -4 5
-11 7 -16 4 -5 -4 -9 -1 -9 4 0 15 27 14 33 -1z m-69 -13 c-4 -8 -11 -15 -16
-15 -6 0 -5 6 2 15 7 8 14 15 16 15 2 0 1 -7 -2 -15z m224 -13 c15 -10 0 -62
-19 -62 -6 0 -9 7 -5 15 3 10 -1 15 -12 16 -10 0 -12 3 -4 6 14 6 16 33 2 33
-5 0 -10 5 -10 10 0 10 13 5 48 -18z m7 18 c3 -5 1 -10 -4 -10 -6 0 -11 5 -11
10 0 6 2 10 4 10 3 0 8 -4 11 -10z m155 -5 c0 -1 -9 -5 -19 -8 -13 -3 -18 -1
-14 9 4 10 33 10 33 -1z m-1705 -5 c-3 -5 -12 -10 -18 -10 -7 0 -6 4 3 10 19
12 23 12 15 0z m867 -22 c-5 -7 -11 -22 -13 -32 -4 -19 -4 -19 -19 -1 -8 11
-10 16 -3 12 7 -4 14 1 18 13 3 11 11 20 17 20 7 0 7 -4 0 -12z m-652 -8 c0
-5 -2 -10 -4 -10 -3 0 -8 5 -11 10 -3 6 -1 10 4 10 6 0 11 -4 11 -10z m900 -2
c0 -7 -8 -26 -19 -41 -15 -24 -19 -26 -25 -12 -9 23 -7 32 3 17 6 -10 10 -5
14 17 6 30 27 44 27 19z m-390 -13 c0 -8 -4 -15 -9 -15 -13 0 -22 16 -14 24
11 11 23 6 23 -9z m407 -7 c-3 -8 -6 -5 -6 6 -1 11 2 17 5 13 3 -3 4 -12 1
-19z m286 -21 c-3 -4 -11 -3 -18 3 -8 7 -19 9 -24 6 -5 -4 -13 -1 -17 5 -4 7
-3 9 4 5 6 -3 17 0 24 7 11 12 14 12 24 -2 7 -9 10 -19 7 -24z m51 27 c9 -23
8 -23 -18 -11 -16 8 -21 14 -13 19 18 11 24 10 31 -8z m796 10 c0 -8 -19 -13
-24 -6 -3 5 1 9 9 9 8 0 15 -2 15 -3z m-2260 -29 c0 -8 -6 -15 -12 -15 -8 -1
-6 -6 5 -14 16 -13 16 -14 0 -27 -10 -7 -15 -10 -11 -5 4 5 3 17 -3 28 -12 21
-6 48 11 48 5 0 10 -7 10 -15z m1667 9 c-3 -3 -12 -4 -19 -1 -8 3 -5 6 6 6 11
1 17 -2 13 -5z m-1707 -34 c0 -14 -7 -20 -21 -20 -18 0 -20 -4 -14 -31 6 -28
5 -30 -17 -27 -12 2 -21 8 -20 13 2 6 8 9 13 8 14 -4 11 15 -3 19 -8 3 -3 10
12 18 14 7 29 19 33 26 11 19 17 17 17 -6z m793 -14 c13 3 16 1 7 -2 -8 -4
-18 -12 -22 -18 -6 -8 -8 -8 -8 1 0 6 -9 9 -22 6 -23 -5 -23 -5 -3 10 11 9 21
12 23 7 2 -4 13 -6 25 -4z m648 -13 c-8 -15 -10 -15 -11 -2 0 17 10 32 18 25
2 -3 -1 -13 -7 -23z m-311 -14 c0 -5 -4 -7 -10 -4 -5 3 -10 1 -10 -4 0 -6 -4
-11 -10 -11 -5 0 -7 7 -4 15 7 17 34 21 34 4z m-854 -21 c4 -7 3 -8 -4 -4 -7
4 -12 2 -12 -5 0 -7 -3 -10 -6 -6 -6 5 3 27 11 27 2 0 7 -5 11 -12z m524 1 c5
9 10 10 14 2 4 -6 4 -12 -1 -12 -4 -1 -17 -3 -28 -4 -11 -2 -28 -6 -37 -10
-23 -9 -23 4 -1 21 13 9 21 9 31 1 10 -8 16 -7 22 2z m325 -31 c0 -31 -4 -34
-35 -29 -5 0 -10 9 -10 19 0 11 3 13 8 5 5 -8 13 -9 22 -3 12 7 11 10 -4 16
-14 5 -15 9 -4 15 21 14 24 11 23 -23z m-195 -22 c0 -8 -9 -12 -22 -11 -30 3
-30 3 -23 15 9 15 45 12 45 -4z"/>
<path d="M340 1456 c0 -18 20 -25 44 -16 16 5 17 8 5 15 -24 15 -49 16 -49 1z"/>
<path d="M303 1453 c-7 -2 -13 -9 -13 -15 0 -6 6 -8 14 -5 16 6 29 -19 20 -36
-5 -9 -4 -9 5 -1 10 9 10 17 2 32 -6 10 -7 22 -4 26 7 7 -6 7 -24 -1z"/>
<path d="M267 1407 c-7 -17 9 -44 20 -34 4 5 1 12 -7 17 -13 8 -12 10 3 10 10
0 15 5 12 10 -9 14 -22 12 -28 -3z"/>
<path d="M515 1410 c27 -12 35 -12 35 0 0 6 -12 10 -27 9 -25 0 -26 -1 -8 -9z"/>
<path d="M520 1386 c0 -2 7 -7 16 -10 8 -3 12 -2 9 4 -6 10 -25 14 -25 6z"/>
<path d="M385 1350 c3 -5 8 -10 11 -10 2 0 4 5 4 10 0 6 -5 10 -11 10 -5 0 -7
-4 -4 -10z"/>
<path d="M405 1330 c-3 -6 1 -7 9 -4 18 7 21 14 7 14 -6 0 -13 -4 -16 -10z"/>
<path d="M2395 690 c-3 -5 -2 -10 4 -10 5 0 13 5 16 10 3 6 2 10 -4 10 -5 0
-13 -4 -16 -10z"/>
<path d="M2441 590 c0 -21 27 -55 36 -46 4 4 3 10 -3 14 -6 4 -16 16 -22 27
-8 14 -11 15 -11 5z"/>
<path d="M355 1662 c-21 -22 54 -59 91 -45 9 3 14 -2 14 -16 0 -28 16 -27 24
2 9 33 8 37 -13 37 -10 0 -21 6 -24 14 -6 14 -79 21 -92 8z"/>
<path d="M320 1651 c0 -6 4 -13 10 -16 6 -3 7 1 4 9 -7 18 -14 21 -14 7z"/>
<path d="M506 1632 c-3 -4 4 -9 15 -9 23 -2 25 3 4 10 -8 4 -16 3 -19 -1z"/>
<path d="M590 1608 c0 -21 0 -21 16 -2 8 10 13 13 9 7 -4 -9 -1 -11 10 -6 13
5 14 7 3 14 -23 15 -38 10 -38 -13z"/>
<path d="M490 1599 c0 -5 5 -7 10 -4 6 3 10 8 10 11 0 2 -4 4 -10 4 -5 0 -10
-5 -10 -11z"/>
<path d="M645 1600 c-3 -5 -1 -10 4 -10 6 0 11 5 11 10 0 6 -2 10 -4 10 -3 0
-8 -4 -11 -10z"/>
<path d="M720 1582 c0 -18 19 -24 37 -13 10 6 13 11 6 11 -6 0 -18 3 -27 6 -9
3 -16 1 -16 -4z"/>
<path d="M530 1546 c0 -9 5 -16 10 -16 6 0 10 4 10 9 0 6 -4 13 -10 16 -5 3
-10 -1 -10 -9z"/>
<path d="M10 584 c0 -8 5 -12 10 -9 6 4 8 11 5 16 -9 14 -15 11 -15 -7z"/>
<path d="M2245 331 c3 -2 -2 -9 -11 -15 -9 -7 -12 -18 -8 -29 8 -23 24 -22 24
2 0 11 7 26 15 35 14 13 13 15 -4 13 -11 -1 -18 -3 -16 -6z"/>
<path d="M2188 221 c-13 -15 -14 -20 -3 -25 15 -5 49 27 38 37 -10 11 -17 8
-35 -12z"/>
<path d="M1970 115 c-19 -22 -8 -25 13 -3 9 10 13 18 8 18 -5 0 -14 -7 -21
-15z"/>
<path d="M1713 75 c-9 -25 4 -29 17 -6 7 15 7 21 0 21 -6 0 -13 -7 -17 -15z"/>
<path d="M1458 59 c-15 -4 -29 -4 -32 -1 -3 3 -6 -5 -6 -18 0 -23 0 -23 21 -4
20 18 20 18 14 -11 l-7 -30 20 28 c13 20 21 25 24 15 3 -7 8 -11 11 -8 3 3 0
12 -6 21 -9 11 -20 14 -39 8z"/>
<path d="M117 26 c-6 -14 0 -26 14 -26 3 0 9 9 12 20 6 23 -18 28 -26 6z"/>
<path d="M10 10 c0 -5 5 -10 11 -10 5 0 7 5 4 10 -3 6 -8 10 -11 10 -2 0 -4
-4 -4 -10z"/>
</g>
</svg>
